<svg xmlns="http://www.w3.org/2000/svg" viewBox="0 0 24 24" fill="#212C42"><path d="M10.705 0C7.54 0 4.902 2.286 4.902 5.333c0 .053.002.104.003.156C2.038 6.022 0 8.555 0 11.556c0 3.31 2.55 6 5.833 6H8v-2H5.833C3.6 15.556 2 13.73 2 11.556c0-2.01 1.383-3.727 3.22-4.2l.78-.2V6.44l-.01-.22c0-.053-.003-.105-.003-.16 0-1.89 1.637-3.394 3.718-3.394h8.575C20.363 2.666 22 4.17 22 6.06c0 1.89-1.637 3.394-3.72 3.394H17v2h1.28C21.46 11.454 24 8.87 24 5.72 24 2.572 21.46 0 18.28 0zm-2.038 10.667c-1.93 0-3.5 1.61-3.5 3.594 0 1.985 1.57 3.594 3.5 3.594h.666V24h2v-6.145h.667c1.93 0 3.5-1.61 3.5-3.594 0-1.985-1.57-3.594-3.5-3.594z"/></svg>
